<?xml version="1.0" standalone="no"?>
<!DOCTYPE svg PUBLIC "-//W3C//DTD SVG 20010904//EN"
 "http://www.w3.org/TR/2001/REC-SVG-20010904/DTD/svg10.dtd">
<svg version="1.0" xmlns="http://www.w3.org/2000/svg"
 width="512.000000pt" height="512.000000pt" viewBox="0 0 512.000000 512.000000"
 preserveAspectRatio="xMidYMid meet">
<metadata>
Created by potrace 1.14, written by Peter Selinger 2001-2017
</metadata>
<g transform="translate(0.000000,512.000000) scale(0.100000,-0.100000)"
fill="#000000" stroke="none">
<path d="M1960 5104 c-571 -88 -1042 -396 -1346 -881 -333 -531 -373 -1224
-104 -1791 146 -306 352 -553 625 -746 l103 -73 -70 -53 c-150 -115 -332 -311
-440 -475 -150 -227 -253 -515 -262 -733 -7 -142 92 -280 237 -333 50 -18 106
-18 1532 -16 l1480 2 55 26 c79 38 131 88 169 163 38 73 48 159 30 251 -5 28
-12 66 -15 85 -16 98 -149 437 -176 448 -4 2 -8 8 -8 14 0 16 -109 176 -169
248 -78 95 -196 213 -276 278 -38 31 -72 59 -75 63 -3 3 -15 12 -26 20 -21 14
-20 16 53 64 41 27 82 57 91 65 9 8 33 27 52 41 132 99 344 349 436 515 15 27
35 63 45 81 71 127 165 411 185 561 18 140 22 192 22 312 -1 162 -16 294 -54
450 -5 22 -4 23 8 8 158 -191 349 -279 612 -280 109 0 114 4 111 99 -5 166
-44 277 -134 376 -41 46 -145 117 -172 117 -36 0 -27 18 24 51 80 52 160 140
205 227 35 68 46 102 68 202 9 43 11 188 3 202 -24 38 -356 48 -478 14 -135
-37 -244 -99 -334 -190 -57 -58 -132 -168 -151 -223 l-13 -38 -13 25 c-46 88
-236 299 -365 407 -209 175 -507 324 -755 379 -19 4 -39 9 -45 10 -154 40
-495 54 -665 28z"/>
</g>
</svg>
