<?xml version="1.0" standalone="no"?>
<!DOCTYPE svg PUBLIC "-//W3C//DTD SVG 20010904//EN"
 "http://www.w3.org/TR/2001/REC-SVG-20010904/DTD/svg10.dtd">
<svg version="1.0" xmlns="http://www.w3.org/2000/svg"
 width="512.000000pt" height="512.000000pt" viewBox="0 0 512.000000 512.000000"
 preserveAspectRatio="xMidYMid meet">
<metadata>
Created by potrace 1.14, written by Peter Selinger 2001-2017
</metadata>
<g transform="translate(0.000000,512.000000) scale(0.100000,-0.100000)"
fill="#000000" stroke="none">
<path d="M4592 4901 c-45 -48 -47 -50 -99 -131 -63 -98 -153 -299 -153 -343 0
-7 -31 -27 -68 -45 -38 -18 -83 -48 -101 -66 l-33 -34 -94 59 c-380 240 -800
379 -1249 416 -162 13 -437 7 -585 -12 -53 -6 -120 -16 -138 -20 -214 -42
-407 -95 -507 -139 -16 -7 -57 -24 -90 -37 -79 -31 -203 -91 -290 -142 -432
-249 -765 -599 -968 -1017 -37 -74 -76 -162 -87 -195 -26 -71 -77 -246 -84
-283 -10 -56 -28 -158 -32 -192 -11 -70 -13 -436 -3 -490 29 -167 44 -235 70
-330 17 -58 34 -114 38 -125 5 -11 23 -56 41 -100 225 -565 732 -1051 1353
-1299 153 -60 342 -118 462 -141 680 -128 1320 -42 1874 252 682 362 1117 940
1248 1658 25 138 25 516 -1 655 -63 348 -193 659 -384 917 l-60 80 30 34 c16
19 37 52 48 75 16 33 30 46 87 74 102 50 241 109 246 104 3 -3 16 9 31 26 25
30 26 38 26 140 0 126 -8 153 -49 175 -42 21 -71 14 -206 -53 -49 -25 -107
-57 -128 -70 l-38 -25 -37 34 c-20 19 -39 35 -41 36 -16 10 89 167 168 253 81
86 82 98 13 210 -66 109 -88 130 -135 130 -32 0 -45 -7 -75 -39z"/>
</g>
</svg>
